<svg xmlns="http://www.w3.org/2000/svg" width="750" height="650" viewBox="0 0 198.438 171.979"><path d="M28.746 127.135c9.452-4.682 45.259-21.658 45.259-21.658s8.092-15.838 16.206-20.989c4.992-3.168 33.8-5.328 47.962 2.111 12.09 6.351 19.296 19.925 25.413 32.135 2.564 5.117 4.411 16.593 4.411 16.593s-18.786-.566-18.803.048c-.418 15.025-25.377 17.167-24.824-.778a11.945 11.945 0 0 1 2.46-6.832c5.87-7.546 14.6-2.894 14.6-2.894s-8.49-2.863-12.554 4.337c-.692 1.225-1.643 5.46.416 10.093 3.059 6.885 19.897 7.427 18.122-5.655-.092-.676 14.542-.564 14.542-.564s-.865-8.865-2.693-12.64c-5.858-12.099-11.229-21.562-23.056-27.95-13.522-7.304-38.353-8-44.342-4.724-7.666 4.194-15.525 23.15-15.525 23.15s-35.68 12.047-45.507 16.402c-9.825 4.355-5.358 12.218-5.358 12.218s-6.181-7.72 3.27-12.403z" style="fill:#323232;fill-opacity:1;fill-rule:evenodd;stroke:#000;stroke-width:.339704;stroke-linejoin:bevel;stroke-miterlimit:0"/><path d="M7.258 143.19S25.64 81.07 39.53 61.272c15.11-21.535 56.958-50.272 80.835-40.65 16.826 6.782 29.39 37.621 29.647 37.27 19.22-26.3 4.291-50.57 4.291-50.57C166.17 14.885 173.75 9.62 173.75 9.62s5.466 22.5-19.137 51.578c-.415.49 44.91-9.116 33.627 50.329-9.302 49.013-55.093 56.835-80.717 58.246-41.743 2.299-96.539-19.654-96.539-19.654s53.127 15.055 95.533 12.549c26.261-1.553 61.078-5.614 73.765-48.53 17.874-60.462-27.143-51.02-28.268-49.228-4.603 7.33-17.611 17.135-17.611 17.135s12.072-9.921 13.23-19.444c.095-.784-14.2-32.712-30.215-37.248-19.546-5.536-51.342 18.405-68.411 36.043-21.762 22.487-38.588 81.716-38.588 81.716 6.112 1.707 12.156-1.647 12.156-1.647s-3.433 4.871-16.102 5c-.108 0 .785-3.277.785-3.277z" style="fill:#323232;fill-opacity:1;fill-rule:evenodd;stroke:#000;stroke-width:.423;stroke-linejoin:bevel;stroke-miterlimit:0"/></svg>