<?xml version="1.0" encoding="UTF-8" standalone="no"?>
<!-- Created with Inkscape (http://www.inkscape.org/) -->

<svg
   width="199mm"
   height="172mm"
   viewBox="0 0 199 172"
   version="1.1"
   id="svg1"
   inkscape:version="1.4.2 (2aeb623e1d, 2025-05-12)"
   sodipodi:docname="logo.svg"
   inkscape:export-filename="logo.svg"
   inkscape:export-xdpi="96"
   inkscape:export-ydpi="96"
   xmlns:inkscape="http://www.inkscape.org/namespaces/inkscape"
   xmlns:sodipodi="http://sodipodi.sourceforge.net/DTD/sodipodi-0.dtd"
   xmlns="http://www.w3.org/2000/svg"
   xmlns:svg="http://www.w3.org/2000/svg">
  <sodipodi:namedview
     id="namedview1"
     pagecolor="#ffffff"
     bordercolor="#000000"
     borderopacity="0.25"
     inkscape:showpageshadow="2"
     inkscape:pageopacity="0.0"
     inkscape:pagecheckerboard="0"
     inkscape:deskcolor="#d1d1d1"
     inkscape:document-units="mm"
     inkscape:zoom="0.71535494"
     inkscape:cx="413.08165"
     inkscape:cy="499.75191"
     inkscape:window-width="1854"
     inkscape:window-height="1011"
     inkscape:window-x="0"
     inkscape:window-y="0"
     inkscape:window-maximized="1"
     inkscape:current-layer="layer1" />
  <defs
     id="defs1" />
  <g
     inkscape:label="Layer 1"
     inkscape:groupmode="layer"
     id="layer1">
    <path
       style="fill:#323232;fill-opacity:1;fill-rule:evenodd;stroke:#000000;stroke-width:0.339704;stroke-linejoin:bevel;stroke-miterlimit:0"
       d="m 28.74586,127.13532 c 9.452192,-4.68216 45.258818,-21.65879 45.258818,-21.65879 0,0 8.092036,-15.837826 16.206316,-20.988273 4.991755,-3.168456 33.799616,-5.328308 47.961566,2.110875 12.09004,6.350822 19.29637,19.925158 25.41388,32.134908 2.56361,5.11662 4.41068,16.59253 4.41068,16.59253 0,0 -18.78607,-0.56568 -18.80315,0.0487 -0.41778,15.02465 -25.37655,17.16653 -24.8242,-0.77861 0.074,-2.40436 0.95305,-4.89247 2.46106,-6.83132 5.86969,-7.54664 14.59851,-2.89386 14.59851,-2.89386 0,0 -8.48842,-2.86357 -12.55372,4.33632 -0.69188,1.22535 -1.64228,5.45949 0.41632,10.09342 3.05858,6.88489 19.89697,7.42707 18.12204,-5.65498 -0.0918,-0.67651 14.54191,-0.56472 14.54191,-0.56472 0,0 -0.86509,-8.8645 -2.6928,-12.63954 -5.85771,-12.0988 -11.22881,-21.562096 -23.05605,-27.95038 -13.52186,-7.303611 -38.35336,-7.999454 -44.341931,-4.723525 -7.665866,4.19346 -15.525266,23.150815 -15.525266,23.150815 0,0 -35.680682,12.04571 -45.506402,16.40091 -9.825719,4.35519 -5.358534,12.21827 -5.358534,12.21827 0,0 -6.181239,-7.72065 3.270953,-12.40282 z"
       id="path1"
       sodipodi:nodetypes="zcssscssscssscsssczczz" />
    <path
       style="fill:#323232;fill-opacity:1;fill-rule:evenodd;stroke:#000000;stroke-width:0.423;stroke-linejoin:bevel;stroke-miterlimit:0"
       d="m 7.2575307,143.18912 c 0,0 18.3827843,-62.118685 32.2733253,-81.916135 C 54.640392,39.738167 96.48903,11.00137 120.36622,20.623906 c 16.82548,6.780687 29.38943,37.62047 29.64655,37.268636 19.2202,-26.300401 4.29148,-50.5696279 4.29148,-50.5696279 11.86445,7.5622669 19.44589,2.298034 19.44589,2.298034 0,0 5.4658,22.5005419 -19.13676,51.5776899 -0.41518,0.490699 44.9091,-9.115906 33.62667,50.329362 -9.30242,49.01287 -55.09301,56.83519 -80.71709,58.24611 -41.742638,2.29844 -96.538589,-19.65437 -96.538589,-19.65437 0,0 53.126892,15.05506 95.532329,12.54883 26.26142,-1.55208 61.0787,-5.6132 73.76523,-48.52865 17.87374,-60.462516 -27.14304,-51.021218 -28.26823,-49.228961 -4.60239,7.330885 -17.61111,17.135172 -17.61111,17.135172 0,0 12.07197,-9.921343 13.22964,-19.44433 0.0953,-0.784182 -14.19852,-32.711356 -30.21387,-37.247599 C 97.871698,19.817739 66.076445,43.759406 49.006849,61.39726 27.245001,83.883574 10.418826,143.11263 10.418826,143.11263 c 6.112206,1.70766 12.15596,-1.64644 12.15596,-1.64644 0,0 -3.432858,4.87128 -16.1021835,4.99956 -0.1077213,10e-4 0.7849282,-3.27663 0.7849282,-3.27663 z"
       id="path2"
       sodipodi:nodetypes="csssscssscssscsssscsc" />
  </g>
</svg>
